<svg xmlns="http://www.w3.org/2000/svg" width="34.942" height="40.765" viewBox="0 0 34.942 40.765">
  <g id="Group_309" data-name="Group 309" transform="translate(-185 79)">
    <path id="iconfinder_file-pdf_298773" d="M26.206,64H0v40.765H34.942V72.735ZM2.912,66.912H14.55a2.449,2.449,0,0,0-1.575,1.951c-.6,2.248-.32,5.949.711,9.524-1.1,3.7-5.579,12.587-5.882,13.116a15.153,15.153,0,0,0-4.892,2.721V66.912ZM15.793,80.9c2.622,6.815,4.322,6.8,6.151,7.625a37.455,37.455,0,0,0-10.579,2.7C11.2,91.523,14.845,84.592,15.793,80.9ZM32.03,101.853H2.912v-.017c.036,0,.05.017.084.017,1.538,0,3.856-.955,8.215-8.3,1.737-.7,3.279-1.223,3.57-1.317a63.655,63.655,0,0,1,8.533-1.518,23.223,23.223,0,0,0,7.635,2.2,5.855,5.855,0,0,0,1.081-.091Zm0-14.132a7.665,7.665,0,0,0-4.055-1.137,33.811,33.811,0,0,0-3.58.2c-1.226-.591-4.211-1.489-6.7-8.654a38.748,38.748,0,0,0,.579-7.9c.309-2.409-1.062-3.314-2.349-3.314a.09.09,0,0,0-.016-.006h7.382l8.735,8.735Z" transform="translate(185 -143)" fill="#dfdfe8"/>
  </g>
</svg>
