<svg xmlns="http://www.w3.org/2000/svg" width="27.479" height="27.582" viewBox="0 0 27.479 27.582">
  <g id="Group_314" data-name="Group 314" transform="translate(-187.521 -382)">
    <path id="Path_427" data-name="Path 427" d="M22.5,31.792q-3.005-.007-6.01-.026A2.38,2.38,0,0,1,14.4,28.6a2.349,2.349,0,0,1,2.123-1.427H17.9c0-2.324-.007-4.648,0-6.972a7.95,7.95,0,0,1,4.564-7.025l.026-.011a6.94,6.94,0,0,1,.2-2.257,3.237,3.237,0,0,1,3.051-2.092,3.3,3.3,0,0,1,3.173,3.211v1.139l.159.073a7.93,7.93,0,0,1,4.431,7.011v6.924a5.791,5.791,0,0,1,2.3.192,2.389,2.389,0,0,1,.761,3.667,2.332,2.332,0,0,1-1.65.731q-2.984.02-5.968.026a3.039,3.039,0,0,1-.294.944,2.892,2.892,0,0,1-2.535,1.638,5.02,5.02,0,0,1-1.764-.172A2.906,2.906,0,0,1,22.5,31.792Zm5.439.2H23.463a1.969,1.969,0,0,0,1.839,1.46,4.138,4.138,0,0,0,1.414-.108A1.956,1.956,0,0,0,27.943,32ZM25.675,9.737a2.359,2.359,0,0,0-2.266,2.3v1.44c-.025.382-.155.363-.526.526a6.979,6.979,0,0,0-4.063,6.212v7.425s-.1.435-.459.459c-1.25,0-2.716-.184-3.123.888a1.434,1.434,0,0,0,1.252,1.866q9.213.174,18.43,0a1.428,1.428,0,0,0,.961-2.326,1.4,1.4,0,0,0-1-.427H33.047a.436.436,0,0,1-.459-.459c0-2.475.007-4.95,0-7.425a6.99,6.99,0,0,0-4.3-6.313A.5.5,0,0,1,28,13.472c0-1.05.091-2.169-.538-2.917A2.248,2.248,0,0,0,25.675,9.737Z" transform="translate(173.276 375.205)" fill="#959595"/>
    <g id="Ellipse_312" data-name="Ellipse 312" transform="translate(200 383)" fill="#5d21d2" stroke="#f6f7fa" stroke-width="1">
      <circle cx="7" cy="7" r="7" stroke="none"/>
      <circle cx="7" cy="7" r="7.5" fill="none"/>
    </g>
  </g>
</svg>
