<svg xmlns="http://www.w3.org/2000/svg" width="13.848" height="13.817" viewBox="0 0 13.848 13.817">
  <g id="iconfinder_calendar_1814093" transform="translate(-13 -9.9)">
    <g id="Group_332" data-name="Group 332">
      <g id="Icon-Calendar" transform="translate(13 9.9)">
        <g id="Group_335" data-name="Group 335">
          <g id="Group_334" data-name="Group 334">
            <g id="Group_333" data-name="Group 333">
              <path id="Fill-133" d="M-7.593-452.223H-18.621A1.391,1.391,0,0,1-20-453.6v-10.12a1.277,1.277,0,0,1,1.159-1.379h.689v.909h-.689c-.094,0-.219.188-.219.47v10.12a.482.482,0,0,0,.47.47H-7.562a.482.482,0,0,0,.47-.47v-10.12c0-.282-.157-.47-.219-.47H-8v-.909h.689a1.3,1.3,0,0,1,1.159,1.379v10.12a1.491,1.491,0,0,1-1.441,1.379" transform="translate(20 466.04)" fill="#959595"/>
              <path id="Fill-134" d="M-10.73-465.312a.482.482,0,0,1-.47-.47v-1.849a.482.482,0,0,1,.47-.47.482.482,0,0,1,.47.47v1.849a.505.505,0,0,1-.47.47" transform="translate(13.957 468.1)" fill="#959595"/>
              <path id="Fill-135" d="M12.67-465.312a.482.482,0,0,1-.47-.47v-1.849a.482.482,0,0,1,.47-.47.482.482,0,0,1,.47.47v1.849a.482.482,0,0,1-.47.47" transform="translate(-2.112 468.1)" fill="#959595"/>
              <path id="Fill-136" d="M-5.3-465.1H-.726v.94H-5.3Z" transform="translate(9.906 466.04)" fill="#959595"/>
              <path id="Fill-137" d="M-17.1-456.3H-5.132v.94H-17.1Z" transform="translate(18.009 459.997)" fill="#959595"/>
              <path id="Fill-138" d="M15.2-450.4h.909v.909H15.2Z" transform="translate(-4.172 455.945)" fill="#959595"/>
              <path id="Fill-139" d="M9.3-450.4h.94v.909H9.3Z" transform="translate(-0.12 455.945)" fill="#959595"/>
              <path id="Fill-140" d="M3.5-450.4h.909v.909H3.5Z" transform="translate(3.863 455.945)" fill="#959595"/>
              <path id="Fill-141" d="M-2.4-450.4h.909v.909H-2.4Z" transform="translate(7.914 455.945)" fill="#959595"/>
              <path id="Fill-142" d="M-8.3-450.4h.94v.909H-8.3Z" transform="translate(11.966 455.945)" fill="#959595"/>
              <path id="Fill-143" d="M15.2-444.5h.909v.909H15.2Z" transform="translate(-4.172 451.894)" fill="#959595"/>
              <path id="Fill-144" d="M9.3-444.5h.94v.909H9.3Z" transform="translate(-0.12 451.894)" fill="#959595"/>
              <path id="Fill-145" d="M3.5-444.5h.909v.909H3.5Z" transform="translate(3.863 451.894)" fill="#959595"/>
              <path id="Fill-146" d="M-2.4-444.5h.909v.909H-2.4Z" transform="translate(7.914 451.894)" fill="#959595"/>
              <path id="Fill-147" d="M-8.3-444.5h.94v.909H-8.3Z" transform="translate(11.966 451.894)" fill="#959595"/>
              <path id="Fill-148" d="M-14.1-444.5h.909v.909H-14.1Z" transform="translate(15.949 451.894)" fill="#959595"/>
              <path id="Fill-149" d="M15.2-438.7h.909v.94H15.2Z" transform="translate(-4.172 447.911)" fill="#959595"/>
              <path id="Fill-150" d="M9.3-438.7h.94v.94H9.3Z" transform="translate(-0.12 447.911)" fill="#959595"/>
              <path id="Fill-151" d="M3.5-438.7h.909v.94H3.5Z" transform="translate(3.863 447.911)" fill="#959595"/>
              <path id="Fill-152" d="M-2.4-438.7h.909v.94H-2.4Z" transform="translate(7.914 447.911)" fill="#959595"/>
              <path id="Fill-153" d="M-8.3-438.7h.94v.94H-8.3Z" transform="translate(11.966 447.911)" fill="#959595"/>
              <path id="Fill-154" d="M-14.1-438.7h.909v.94H-14.1Z" transform="translate(15.949 447.911)" fill="#959595"/>
              <path id="Fill-155" d="M9.3-432.8h.94v.909H9.3Z" transform="translate(-0.12 443.86)" fill="#959595"/>
              <path id="Fill-156" d="M3.5-432.8h.909v.909H3.5Z" transform="translate(3.863 443.86)" fill="#959595"/>
              <path id="Fill-157" d="M-2.4-432.8h.909v.909H-2.4Z" transform="translate(7.914 443.86)" fill="#959595"/>
              <path id="Fill-158" d="M-8.3-432.8h.94v.909H-8.3Z" transform="translate(11.966 443.86)" fill="#959595"/>
              <path id="Fill-159" d="M-14.1-432.8h.909v.909H-14.1Z" transform="translate(15.949 443.86)" fill="#959595"/>
            </g>
          </g>
        </g>
      </g>
    </g>
  </g>
</svg>
