<svg xmlns="http://www.w3.org/2000/svg" width="17.921" height="17.994" viewBox="0 0 17.921 17.994">
  <path id="Path_434" data-name="Path 434" d="M11.3,13.074s1.427-.817,1.8-1.013a1.071,1.071,0,0,1,.993-.1c.355.217,3.336,2.2,3.587,2.375a.85.85,0,0,1,.027,1.17c-.344.492-1.929,2.438-2.6,2.417s-3.471-.083-8.747-5.36S1.021,4.485,1,3.812s1.924-2.258,2.416-2.6a.861.861,0,0,1,1.171.027c.2.275,2.159,3.247,2.374,3.587a1.059,1.059,0,0,1-.1.994c-.2.374-1.013,1.8-1.013,1.8a17.5,17.5,0,0,0,2.524,2.93A17.586,17.586,0,0,0,11.3,13.074Z" transform="translate(-0.499 -0.426)" fill="none" stroke="#606060" stroke-miterlimit="10" stroke-width="1"/>
</svg>
