<svg xmlns="http://www.w3.org/2000/svg" width="28.198" height="22.622" viewBox="0 0 28.198 22.622">
  <g id="Union_14" data-name="Union 14" fill="#fff">
    <path d="M 11.60860061645508 21.79950904846191 L 11.60860061645508 17.06669998168945 L 11.60860061645508 16.66670036315918 L 11.20860004425049 16.66670036315918 L 5.000400543212891 16.66670036315918 C 2.463730335235596 16.66670036315918 0.4000003933906555 14.60336971282959 0.4000003933906555 12.06719970703125 L 0.4000003933906555 4.999500274658203 C 0.4000003933906555 2.463330030441284 2.463730335235596 0.4000001549720764 5.000400543212891 0.4000001549720764 L 23.19840049743652 0.4000001549720764 C 25.73456954956055 0.4000001549720764 27.79790115356445 2.463330030441284 27.79790115356445 4.999500274658203 L 27.79790115356445 12.06719970703125 C 27.79790115356445 14.60336971282959 25.73456954956055 16.66670036315918 23.19840049743652 16.66670036315918 L 18.28079986572266 16.66670036315918 L 18.14247131347656 16.66670036315918 L 18.03370094299316 16.75214958190918 L 11.60860061645508 21.79950904846191 Z" stroke="none"/>
    <path d="M 12.00860023498535 20.97661781311035 L 17.78660011291504 16.43760108947754 L 18.004150390625 16.26670074462891 L 18.28079986572266 16.26670074462891 L 23.19840049743652 16.26670074462891 C 25.51400947570801 16.26670074462891 27.39789962768555 14.38281059265137 27.39789962768555 12.06719970703125 L 27.39789962768555 4.999500274658203 C 27.39789962768555 2.683890104293823 25.51400947570801 0.8000001311302185 23.19840049743652 0.8000001311302185 L 5.000400543212891 0.8000001311302185 C 2.684290409088135 0.8000001311302185 0.8000003695487976 2.683890104293823 0.8000003695487976 4.999500274658203 L 0.8000003695487976 12.06719970703125 C 0.8000003695487976 14.38281059265137 2.684290409088135 16.26670074462891 5.000400543212891 16.26670074462891 L 11.20860004425049 16.26670074462891 L 12.00860023498535 16.26670074462891 L 12.00860023498535 17.06669998168945 L 12.00860023498535 20.97661781311035 M 11.20860004425049 22.62240028381348 L 11.20860004425049 17.06669998168945 L 5.000400543212891 17.06669998168945 C 2.238300323486328 17.06669998168945 3.860473611894122e-07 14.82840061187744 3.860473611894122e-07 12.06719970703125 L 3.860473611894122e-07 4.999500274658203 C 3.860473611894122e-07 2.238300085067749 2.238300323486328 1.419067388042095e-07 5.000400543212891 1.419067388042095e-07 L 23.19840049743652 1.419067388042095e-07 C 25.9596004486084 1.419067388042095e-07 28.19790077209473 2.238300085067749 28.19790077209473 4.999500274658203 L 28.19790077209473 12.06719970703125 C 28.19790077209473 14.82840061187744 25.9596004486084 17.06669998168945 23.19840049743652 17.06669998168945 L 18.28079986572266 17.06669998168945 L 11.20860004425049 22.62240028381348 Z" stroke="none" fill="#959595"/>
  </g>
</svg>
