<svg xmlns="http://www.w3.org/2000/svg" width="16.661" height="16.557" viewBox="0 0 16.661 16.557">
  <path id="document-edit" d="M17.376,8.611,10.455,15.54h0l-1.6-1.6,6.924-6.925,1.594,1.594Zm.433-.434,1.06-1.062a.614.614,0,0,0,0-.868l-.723-.721a.614.614,0,0,0-.869,0L16.215,6.583l1.594,1.594ZM8.46,14.412l-.392,1.909,1.922-.379-1.53-1.53Zm6.191-7.12h0L10.972,3H4.228A1.229,1.229,0,0,0,3,4.231V18.326a1.227,1.227,0,0,0,1.225,1.231h9.2a1.226,1.226,0,0,0,1.225-1.221V12.2L19.3,7.55a1.229,1.229,0,0,0,.006-1.735l-.723-.723a1.222,1.222,0,0,0-1.735.006l-2.2,2.2Zm-.613,5.519v5.523a.611.611,0,0,1-.613.609h-9.2a.615.615,0,0,1-.613-.61V4.224a.614.614,0,0,1,.611-.61h6.135V6.676a1.223,1.223,0,0,0,1.225,1.23h2.454L7.906,14.038,7.292,17.1l3.066-.613,3.679-3.679ZM10.972,3.92V6.674a.617.617,0,0,0,.611.619h2.271L10.972,3.92Z" transform="translate(-3 -3)" fill="#959595" fill-rule="evenodd"/>
</svg>
