<svg xmlns="http://www.w3.org/2000/svg" width="19.682" height="13.121" viewBox="0 0 19.682 13.121">
  <g id="Group_331" data-name="Group 331" transform="translate(-199 -203.439)">
    <path id="Path_430" data-name="Path 430" d="M18.042,21.121H1.64A1.642,1.642,0,0,1,0,19.481V9.64A1.642,1.642,0,0,1,1.64,8h16.4a1.642,1.642,0,0,1,1.64,1.64v9.841A1.642,1.642,0,0,1,18.042,21.121ZM1.64,8.82a.821.821,0,0,0-.82.82v9.841a.821.821,0,0,0,.82.82h16.4a.821.821,0,0,0,.82-.82V9.64a.821.821,0,0,0-.82-.82Z" transform="translate(199 195.439)" fill="#606060"/>
    <path id="Path_431" data-name="Path 431" d="M13.38,21.409,6.187,16.754a.41.41,0,0,1,.445-.689l6.748,4.366,6.748-4.366a.41.41,0,0,1,.445.689Z" transform="translate(195.461 190.72)" fill="#606060"/>
    <path id="Path_432" data-name="Path 432" d="M5.41,29.28a.41.41,0,0,1-.228-.751l3.69-2.46a.41.41,0,0,1,.455.682l-3.69,2.46A.412.412,0,0,1,5.41,29.28Z" transform="translate(196.051 184.82)" fill="#606060"/>
    <path id="Path_433" data-name="Path 433" d="M36.1,29.28a.412.412,0,0,1-.227-.069l-3.69-2.46a.41.41,0,0,1,.455-.682l3.69,2.46a.41.41,0,0,1-.228.751Z" transform="translate(180.121 184.82)" fill="#606060"/>
  </g>
</svg>
