<svg xmlns="http://www.w3.org/2000/svg" width="17" height="16.346" viewBox="0 0 17 16.346">
  <path id="note-add" d="M18.077,18.077H16.115v-.654h1.962V15.462h.654v1.962h1.962v.654H18.731v1.962h-.654V18.077ZM15.2,19.385H6.307a.649.649,0,0,1-.653-.653V8.923H19.385v5.366a3.6,3.6,0,0,0-4.185,5.1Zm4.839-4.839V6.308A1.311,1.311,0,0,0,18.73,5H6.308A1.311,1.311,0,0,0,5,6.308V18.73a1.311,1.311,0,0,0,1.308,1.308H15.63a3.6,3.6,0,1,0,4.409-5.493ZM5.654,8.269V6.307a.649.649,0,0,1,.653-.653H18.732a.649.649,0,0,1,.653.653V8.269ZM18.4,20.692a2.942,2.942,0,1,0-2.942-2.942A2.942,2.942,0,0,0,18.4,20.692Z" transform="translate(-5 -5)" fill="#959595" fill-rule="evenodd"/>
</svg>
