<svg xmlns="http://www.w3.org/2000/svg" width="14.984" height="15" viewBox="0 0 14.984 15">
  <g id="Group_329" data-name="Group 329" transform="translate(-176 -222)">
    <g id="Group_330" data-name="Group 330" transform="translate(1 -3)">
      <path id="Path_435" data-name="Path 435" d="M164.548,160a3.746,3.746,0,1,0,2.651,1.1A3.724,3.724,0,0,0,164.548,160Zm0,6.871a3.123,3.123,0,1,1,3.123-3.123A3.123,3.123,0,0,1,164.548,166.871Z" transform="translate(17.979 68.748)" fill="#5154a8"/>
      <path id="Path_436" data-name="Path 436" d="M78.075,69.934h-.593a.9.9,0,0,1-.89-.906.846.846,0,0,1,.293-.64l.383-.375a.959.959,0,0,0,0-1.363l-.871-.863a.991.991,0,0,0-1.366,0l-.367.367a.9.9,0,0,1-.672.3.92.92,0,0,1-.925-.886v-.59a.962.962,0,0,0-.937-.98H70.942a.978.978,0,0,0-.968.98v.593a.909.909,0,0,1-.914.886.879.879,0,0,1-.648-.289l-.379-.375a.962.962,0,0,0-.683-.273.986.986,0,0,0-.683.273l-.871.859a.961.961,0,0,0,0,1.359l.367.367a.862.862,0,0,1,.3.652.9.9,0,0,1-.89.906h-.593A.978.978,0,0,0,64,70.9V72.09a.987.987,0,0,0,.984.968h.593a.9.9,0,0,1,.89.906.876.876,0,0,1-.3.656l-.367.359a.961.961,0,0,0,0,1.359l.871.867a.962.962,0,0,0,.683.273.986.986,0,0,0,.683-.273l.379-.375a.858.858,0,0,1,.644-.289.909.909,0,0,1,.914.886v.593a.98.98,0,0,0,.964.98h1.187a.987.987,0,0,0,.972-.98v-.593a.9.9,0,0,1,1.569-.586l.367.367a.991.991,0,0,0,1.366,0l.871-.867a.966.966,0,0,0,0-1.363l-.383-.375a.877.877,0,0,1-.293-.652.917.917,0,0,1,.89-.921h.593a.9.9,0,0,0,.91-.933V70.9A.925.925,0,0,0,78.075,69.934Zm.293,1.562v.59a.279.279,0,0,1-.285.308h-.593a1.5,1.5,0,0,0-1.074.469,1.55,1.55,0,0,0-.441,1.085,1.474,1.474,0,0,0,.488,1.1l.371.367a.347.347,0,0,1,0,.48l-.871.867a.363.363,0,0,1-.246.094.356.356,0,0,1-.246-.094l-.355-.355a1.52,1.52,0,0,0-2.186-.055,1.479,1.479,0,0,0-.453,1.074v.593a.363.363,0,0,1-.347.355H70.942a.356.356,0,0,1-.34-.355v-.593a1.489,1.489,0,0,0-.457-1.074,1.551,1.551,0,0,0-1.078-.437,1.5,1.5,0,0,0-1.1.484l-.363.363a.363.363,0,0,1-.246.094.335.335,0,0,1-.238-.086l0,0,0,0-.871-.867a.342.342,0,0,1,0-.476l.355-.351a1.507,1.507,0,0,0,.055-2.182,1.482,1.482,0,0,0-1.074-.449h-.6a.363.363,0,0,1-.359-.344V70.9a.363.363,0,0,1,.359-.344h.593a1.482,1.482,0,0,0,1.074-.449,1.529,1.529,0,0,0,.441-1.074,1.491,1.491,0,0,0-.5-1.109l-.359-.355a.33.33,0,0,1-.1-.238.335.335,0,0,1,.1-.238l.867-.863a.363.363,0,0,1,.246-.094.335.335,0,0,1,.238.086l0,0,0,0,.367.367a1.482,1.482,0,0,0,1.1.484,1.544,1.544,0,0,0,1.078-.437,1.487,1.487,0,0,0,.461-1.074V64.98a.353.353,0,0,1,.332-.355h1.191a.337.337,0,0,1,.312.355v.593a1.5,1.5,0,0,0,.469,1.074,1.563,1.563,0,0,0,1.085.437,1.524,1.524,0,0,0,1.117-.492l.355-.355a.363.363,0,0,1,.246-.094.372.372,0,0,1,.246.09l.871.863a.341.341,0,0,1,.1.238.337.337,0,0,1-.1.238l-.371.367a1.488,1.488,0,0,0-.488,1.1,1.513,1.513,0,0,0,.441,1.07,1.482,1.482,0,0,0,1.074.449h.593c.211,0,.289.2.293.351V71.5Z" transform="translate(111 161)" fill="#5154a8"/>
    </g>
  </g>
</svg>
