<svg xmlns="http://www.w3.org/2000/svg" width="16.706" height="16.514" viewBox="0 0 16.706 16.514">
  <g id="Group_313" data-name="Group 313" transform="translate(-82 -309)">
    <g id="Group_312" data-name="Group 312">
      <g id="Ellipse_311" data-name="Ellipse 311" transform="translate(85.35 309)" fill="none" stroke="#959595" stroke-width="0.8">
        <circle cx="5" cy="5" r="5" stroke="none"/>
        <circle cx="5" cy="5" r="4.6" fill="none"/>
      </g>
      <g id="Path_423" data-name="Path 423" transform="translate(82 318.641)" fill="none">
        <path d="M8.353-.495c4.613,0,8.353,2.258,8.353,4.433s-3.74,2.934-8.353,2.934S0,6.114,0,3.939,3.74-.495,8.353-.495Z" stroke="none"/>
        <path d="M 8.352783203125 0.3053755760192871 C 6.339472770690918 0.3053755760192871 4.327882766723633 0.7795357704162598 2.833813667297363 1.60627555847168 C 1.579313278198242 2.300455570220947 0.8000030517578125 3.194175481796265 0.8000030517578125 3.93867564201355 C 0.8000030517578125 4.564735412597656 1.432573318481445 5.075375556945801 2.680152893066406 5.456395626068115 C 4.000713348388672 5.859715461730957 5.962283134460449 6.072895526885986 8.352783203125 6.072895526885986 C 10.74328327178955 6.072895526885986 12.70485305786133 5.859715461730957 14.02541351318359 5.456395626068115 C 15.27299308776855 5.075375556945801 15.90556335449219 4.564735412597656 15.90556335449219 3.93867564201355 C 15.90556335449219 3.194175481796265 15.12625312805176 2.300455570220947 13.87175369262695 1.60627555847168 C 12.37768363952637 0.7795357704162598 10.36609268188477 0.3053755760192871 8.352783203125 0.3053755760192871 M 8.352783203125 -0.4946246147155762 C 12.96589279174805 -0.4946246147155762 16.70556259155273 1.763405323028564 16.70556259155273 3.93867564201355 C 16.70556259155273 6.113945484161377 12.96589279174805 6.87289571762085 8.352783203125 6.87289571762085 C 3.739673614501953 6.87289571762085 3.814697265625e-06 6.113945484161377 3.814697265625e-06 3.93867564201355 C 3.814697265625e-06 1.763405323028564 3.739673614501953 -0.4946246147155762 8.352783203125 -0.4946246147155762 Z" stroke="none" fill="#959595"/>
      </g>
    </g>
  </g>
</svg>
